<svg xmlns="http://www.w3.org/2000/svg" viewBox="0 0 128 128" fill="none" stroke="#174D76" stroke-width="3" stroke-linecap="round" stroke-linejoin="round" role="img" aria-label="afwassen"><title>afwassen — stijl A</title><path d="M15 96H113L105 113H25Z" fill="white" /><path d="M100 89V33Q100 24 110 24H118M114 25V40"  /><circle cx="61" cy="64" r="30" fill="white"/><circle cx="61" cy="64" r="21" fill="white"/><path d="M13 67 27 70 41 60 51 65 40 82 27 82 13 79Z" fill="white" /><path d="M44 48 60 38 73 51 57 66Z" fill="white" /><path d="M92 27 77 36 68 47 61 43 65 34 77 20" fill="white" /><circle cx="29" cy="35" r="4" fill="white"/><circle cx="41" cy="24" r="3" fill="white"/><path d="M113 48V52M113 62V65"  /></svg>