<svg xmlns="http://www.w3.org/2000/svg" viewBox="0 0 128 128" fill="none" stroke="#174D76" stroke-width="3" stroke-linecap="round" stroke-linejoin="round" role="img" aria-label="trekken"><title>trekken — stijl A</title><path d="M36 72 51 73 57 91 73 108 67 115 46 95 36 110 24 112 23 105 33 91Z" fill="white" /><path d="M32 40 43 37 55 43 65 58 83 64 80 72 59 65 49 54 49 78H27V58Z" fill="white" /><g transform="translate(12.41 3.8) scale(0.62)"><g transform="translate(0 0)"><path d="M39 44V55Q45 62 51 55V44Z" fill="white" /><path d="M27 42V27C27 14 34 10 44 10S61 17 61 29V45L54 49H33Z" fill="white" /><path d="M33 27Q45 31 51 20L56 29V36Q56 49 45 49T33 36Z" fill="white" /><path d="M45 33V38H48M40 42Q45 46 50 42"  stroke-width="2"/></g></g><path d="M27 51 15 66 10 62 19 45Z" fill="white" /><path d="M83 67 89 91"  /><path d="M77 85H113V107H82Z" fill="white" /><rect x="84" y="89" width="23" height="14" rx="2" fill="white"/><circle cx="86" cy="113" r="5" fill="white"/><circle cx="109" cy="113" r="5" fill="white"/><path d="M23 105 24 112H12Q8 107 18 105ZM67 115 73 108 81 114Z" fill="white" /></svg>