<svg xmlns="http://www.w3.org/2000/svg" viewBox="0 0 128 128" fill="none" stroke="#174D76" stroke-width="3" stroke-linecap="round" stroke-linejoin="round" role="img" aria-label="duwen"><title>duwen — stijl A</title><path d="M31 74 45 78 48 96 41 114 33 114 37 94 27 88 18 111H9L18 87Z" fill="white" /><path d="M32 40 45 41 59 57 74 59 74 67H55L43 55 39 82 21 73 25 54Z" fill="white" /><g transform="translate(14.855 6.9) scale(0.61)"><g transform="translate(0 0)"><path d="M39 44V55Q45 62 51 55V44Z" fill="white" /><path d="M28 31V24C28 14 35 10 45 10S61 16 61 27V34L54 38H34Z" fill="white" /><path d="M33 27Q45 31 51 20L56 29V36Q56 49 45 49T33 36Z" fill="white" /><path d="M45 33V38H48M40 42Q45 46 50 42"  stroke-width="2"/></g></g><path d="M39 56 54 75 73 75V83H50L32 65Z" fill="white" /><path d="M75 51V101H118V63H75" fill="white" /><rect x="81" y="69" width="31" height="24" rx="2" fill="white"/><circle cx="82" cy="109" r="6" fill="white"/><circle cx="110" cy="109" r="6" fill="white"/></svg>