<svg xmlns="http://www.w3.org/2000/svg" viewBox="0 0 200 150" role="img" aria-labelledby="title-t11"><title id="title-t11">Een ingepakt cadeau met een stoffen lint</title><defs><linearGradient id="paper-t11" x2="0" y2="1"><stop stop-color="#fffef9"/><stop offset="1" stop-color="#eee5d5"/></linearGradient></defs><ellipse cx="100" cy="132" rx="61" ry="6" fill="#25445B" opacity=".09"/><g stroke="#25445B" stroke-width="2.8" stroke-linecap="round" stroke-linejoin="round">
<path d="M54 63l47-14 49 15v54l-48 14-48-15z" fill="#B9CFBD"/><path d="M54 63l48 16 48-15M102 79v53" fill="none" stroke="#7D9E8A"/>
<path d="M75 57l50 14v55l-14 4V75L63 61z" fill="#C77351" stroke="none"/><path d="M125 56L77 71v54l14 4V75l46-15z" fill="#C77D5F" stroke="none"/>
<path d="M100 54q-42 0-31-22 12-20 31 22 22-41 35-20 10 20-35 20z" fill="#E8B291" stroke="#C77351"/><path d="M56 62l45-14 48 15" fill="none"/></g></svg>