<svg xmlns="http://www.w3.org/2000/svg" viewBox="0 0 128 128" fill="none" stroke="#174D76" stroke-width="3" stroke-linecap="round" stroke-linejoin="round" role="img" aria-label="bedanken"><title>bedanken — stijl B</title><path d="M23 55 33 59 41 55 48 63V114H12V78Q12 60 23 55Z" fill="#174D76" /><g transform="translate(4.745000000000001 15.100000000000001) scale(0.59)"><g transform="translate(0 0)"><path d="M39 44V55Q45 62 51 55V44Z" fill="white" /><path d="M28 31V24C28 14 35 10 45 10S61 16 61 27V34L54 38H34Z" fill="#174D76" /><path d="M33 27Q45 31 51 20L56 29V36Q56 49 45 49T33 36Z" fill="white" /><path d="M45 33V38H48M40 42Q45 46 50 42"  stroke-width="2"/></g></g><path d="M90 55 98 59 107 55Q117 63 117 78V114H83V64Z" fill="white" /><g transform="translate(74.745 15.100000000000001) scale(0.59)"><g transform="translate(0 0)"><path d="M39 44V55Q45 62 51 55V44Z" fill="white" /><path d="M27 42V27C27 14 34 10 44 10S61 17 61 29V45L54 49H33Z" fill="#174D76" /><path d="M33 27Q45 31 51 20L56 29V36Q56 49 45 49T33 36Z" fill="white" /><path d="M45 33V38H48M40 42Q45 46 50 42"  stroke-width="2"/></g></g><path d="M37 69 47 77 59 75 62 83 46 88 33 77Z" fill="#174D76" /><path d="M100 67 87 74 81 66 76 70 83 84 92 82 106 75Z" fill="white" /><path d="M55 48C44 39 48 30 55 35C62 30 68 39 55 48Z" fill="white" /><path d="M78 19 81 14M87 15 88 9"  stroke-width="2.5"/></svg>