<svg xmlns="http://www.w3.org/2000/svg" width="1672" height="941" viewBox="0 0 1672 941"><rect width="1672" height="941" fill="#ebe6d9"/><path d="M100,825 L190,780" stroke="#cfbc91" stroke-width="59" fill="none" stroke-linecap="round"/><path d="M190,780 L280,730" stroke="#cfbc91" stroke-width="59" fill="none" stroke-linecap="round"/><path d="M280,730 L365,670" stroke="#cfbc91" stroke-width="59" fill="none" stroke-linecap="round"/><path d="M365,670 L515,625" stroke="#cfbc91" stroke-width="59" fill="none" stroke-linecap="round"/><path d="M515,625 L605,670" stroke="#cfbc91" stroke-width="59" fill="none" stroke-linecap="round"/><path d="M605,670 L695,720" stroke="#cfbc91" stroke-width="59" fill="none" stroke-linecap="round"/><path d="M695,720 L785,760" stroke="#cfbc91" stroke-width="59" fill="none" stroke-linecap="round"/><path d="M785,760 L880,770" stroke="#cfbc91" stroke-width="59" fill="none" stroke-linecap="round"/><path d="M880,770 L975,745" stroke="#cfbc91" stroke-width="59" fill="none" stroke-linecap="round"/><path d="M975,745 L1045,680" stroke="#cfbc91" stroke-width="59" fill="none" stroke-linecap="round"/><path d="M1045,680 L1080,595" stroke="#cfbc91" stroke-width="59" fill="none" stroke-linecap="round"/><path d="M1080,595 L1050,505" stroke="#cfbc91" stroke-width="59" fill="none" stroke-linecap="round"/><path d="M1050,505 L965,450" stroke="#cfbc91" stroke-width="59" fill="none" stroke-linecap="round"/><path d="M965,450 L875,410" stroke="#cfbc91" stroke-width="59" fill="none" stroke-linecap="round"/><path d="M875,410 L780,370" stroke="#cfbc91" stroke-width="59" fill="none" stroke-linecap="round"/><path d="M780,370 L690,330" stroke="#cfbc91" stroke-width="59" fill="none" stroke-linecap="round"/><path d="M690,330 L600,290" stroke="#cfbc91" stroke-width="59" fill="none" stroke-linecap="round"/><path d="M600,290 L505,250" stroke="#cfbc91" stroke-width="59" fill="none" stroke-linecap="round"/><path d="M505,250 L415,210" stroke="#cfbc91" stroke-width="59" fill="none" stroke-linecap="round"/><path d="M415,210 L425,130" stroke="#cfbc91" stroke-width="59" fill="none" stroke-linecap="round"/><path d="M425,130 L530,105" stroke="#cfbc91" stroke-width="59" fill="none" stroke-linecap="round"/><path d="M530,105 L645,125" stroke="#cfbc91" stroke-width="59" fill="none" stroke-linecap="round"/><path d="M645,125 L750,155" stroke="#cfbc91" stroke-width="59" fill="none" stroke-linecap="round"/><path d="M1010,180 L1115,220" stroke="#cfbc91" stroke-width="59" fill="none" stroke-linecap="round"/><path d="M1115,220 L1220,245" stroke="#cfbc91" stroke-width="59" fill="none" stroke-linecap="round"/><path d="M1220,245 L1320,220" stroke="#cfbc91" stroke-width="59" fill="none" stroke-linecap="round"/><path d="M1320,220 L1425,240" stroke="#cfbc91" stroke-width="59" fill="none" stroke-linecap="round"/><path d="M1425,240 L1500,315" stroke="#cfbc91" stroke-width="59" fill="none" stroke-linecap="round"/><path d="M1500,315 L1490,405" stroke="#cfbc91" stroke-width="59" fill="none" stroke-linecap="round"/><path d="M1490,405 L1550,485" stroke="#cfbc91" stroke-width="59" fill="none" stroke-linecap="round"/><ellipse cx="100" cy="825" rx="61" ry="32" fill="#e1cda4" stroke="#77654a" stroke-width="3"/><text x="100" y="832" text-anchor="middle" font-family="serif" font-size="22">START</text><g transform="translate(190 780)"><rect x="-31" y="-21.5" width="62" height="43" rx="4" fill="#90bfd8" stroke="#fff5d4" stroke-width="3"/><g fill="#665740" fill-opacity=".38" stroke="#665740" stroke-width="1.5"><ellipse rx="14.448000000000002" ry="12.9"/></g></g><g transform="translate(280 730)"><rect x="-31" y="-21.5" width="62" height="43" rx="4" fill="#aabc91" stroke="#fff5d4" stroke-width="3"/><g fill="#665740" fill-opacity=".38" stroke="#665740" stroke-width="1.5"><rect x="-12.9" y="-12.9" width="25.8" height="25.8"/></g></g><g transform="translate(365 670)"><rect x="-31" y="-21.5" width="62" height="43" rx="4" fill="#dfb764" stroke="#fff5d4" stroke-width="3"/><g fill="#665740" fill-opacity=".38" stroke="#665740" stroke-width="1.5"><path d="M0 -12.9 L15.48 12.9 H-15.48Z"/></g></g><g transform="translate(515 625)"><rect x="-31" y="-21.5" width="62" height="43" rx="4" fill="#cd9078" stroke="#fff5d4" stroke-width="3"/><g fill="#665740" fill-opacity=".38" stroke="#665740" stroke-width="1.5"><path d="M0 -15.48 L15.48 0 L0 15.48 L-15.48 0Z"/></g></g><g transform="translate(605 670)"><rect x="-31" y="-21.5" width="62" height="43" rx="4" fill="#90bfd8" stroke="#fff5d4" stroke-width="3"/><g fill="#665740" fill-opacity=".38" stroke="#665740" stroke-width="1.5"><ellipse rx="14.448000000000002" ry="12.9"/></g></g><g transform="translate(695 720)"><rect x="-31" y="-21.5" width="62" height="43" rx="4" fill="#aabc91" stroke="#fff5d4" stroke-width="3"/><g fill="#665740" fill-opacity=".38" stroke="#665740" stroke-width="1.5"><rect x="-12.9" y="-12.9" width="25.8" height="25.8"/></g></g><g transform="translate(785 760)"><rect x="-31" y="-21.5" width="62" height="43" rx="4" fill="#dfb764" stroke="#fff5d4" stroke-width="3"/><g fill="#665740" fill-opacity=".38" stroke="#665740" stroke-width="1.5"><path d="M0 -12.9 L15.48 12.9 H-15.48Z"/></g></g><g transform="translate(880 770)"><rect x="-31" y="-21.5" width="62" height="43" rx="4" fill="#cd9078" stroke="#fff5d4" stroke-width="3"/><g fill="#665740" fill-opacity=".38" stroke="#665740" stroke-width="1.5"><path d="M0 -15.48 L15.48 0 L0 15.48 L-15.48 0Z"/></g></g><g transform="translate(975 745)"><rect x="-31" y="-21.5" width="62" height="43" rx="4" fill="#90bfd8" stroke="#fff5d4" stroke-width="3"/><g fill="#665740" fill-opacity=".38" stroke="#665740" stroke-width="1.5"><ellipse rx="14.448000000000002" ry="12.9"/></g></g><g transform="translate(1045 680)"><rect x="-31" y="-21.5" width="62" height="43" rx="4" fill="#aabc91" stroke="#fff5d4" stroke-width="3"/><g fill="#665740" fill-opacity=".38" stroke="#665740" stroke-width="1.5"><rect x="-12.9" y="-12.9" width="25.8" height="25.8"/></g></g><g transform="translate(1080 595)"><rect x="-31" y="-21.5" width="62" height="43" rx="4" fill="#dfb764" stroke="#fff5d4" stroke-width="3"/><g fill="#665740" fill-opacity=".38" stroke="#665740" stroke-width="1.5"><path d="M0 -12.9 L15.48 12.9 H-15.48Z"/></g></g><g transform="translate(1050 505)"><rect x="-31" y="-21.5" width="62" height="43" rx="4" fill="#cd9078" stroke="#fff5d4" stroke-width="3"/><g fill="#665740" fill-opacity=".38" stroke="#665740" stroke-width="1.5"><path d="M0 -15.48 L15.48 0 L0 15.48 L-15.48 0Z"/></g></g><g transform="translate(965 450)"><rect x="-31" y="-21.5" width="62" height="43" rx="4" fill="#90bfd8" stroke="#fff5d4" stroke-width="3"/><g fill="#665740" fill-opacity=".38" stroke="#665740" stroke-width="1.5"><ellipse rx="14.448000000000002" ry="12.9"/></g></g><g transform="translate(875 410)"><rect x="-31" y="-21.5" width="62" height="43" rx="4" fill="#aabc91" stroke="#fff5d4" stroke-width="3"/><g fill="#665740" fill-opacity=".38" stroke="#665740" stroke-width="1.5"><rect x="-12.9" y="-12.9" width="25.8" height="25.8"/></g></g><g transform="translate(780 370)"><rect x="-31" y="-21.5" width="62" height="43" rx="4" fill="#dfb764" stroke="#fff5d4" stroke-width="3"/><g fill="#665740" fill-opacity=".38" stroke="#665740" stroke-width="1.5"><path d="M0 -12.9 L15.48 12.9 H-15.48Z"/></g></g><g transform="translate(690 330)"><rect x="-31" y="-21.5" width="62" height="43" rx="4" fill="#cd9078" stroke="#fff5d4" stroke-width="3"/><g fill="#665740" fill-opacity=".38" stroke="#665740" stroke-width="1.5"><path d="M0 -15.48 L15.48 0 L0 15.48 L-15.48 0Z"/></g></g><g transform="translate(600 290)"><rect x="-31" y="-21.5" width="62" height="43" rx="4" fill="#90bfd8" stroke="#fff5d4" stroke-width="3"/><g fill="#665740" fill-opacity=".38" stroke="#665740" stroke-width="1.5"><ellipse rx="14.448000000000002" ry="12.9"/></g></g><g transform="translate(505 250)"><rect x="-31" y="-21.5" width="62" height="43" rx="4" fill="#aabc91" stroke="#fff5d4" stroke-width="3"/><g fill="#665740" fill-opacity=".38" stroke="#665740" stroke-width="1.5"><rect x="-12.9" y="-12.9" width="25.8" height="25.8"/></g></g><g transform="translate(415 210)"><rect x="-31" y="-21.5" width="62" height="43" rx="4" fill="#dfb764" stroke="#fff5d4" stroke-width="3"/><g fill="#665740" fill-opacity=".38" stroke="#665740" stroke-width="1.5"><path d="M0 -12.9 L15.48 12.9 H-15.48Z"/></g></g><g transform="translate(425 130)"><rect x="-31" y="-21.5" width="62" height="43" rx="4" fill="#cd9078" stroke="#fff5d4" stroke-width="3"/><g fill="#665740" fill-opacity=".38" stroke="#665740" stroke-width="1.5"><path d="M0 -15.48 L15.48 0 L0 15.48 L-15.48 0Z"/></g></g><g transform="translate(530 105)"><rect x="-31" y="-21.5" width="62" height="43" rx="4" fill="#90bfd8" stroke="#fff5d4" stroke-width="3"/><g fill="#665740" fill-opacity=".38" stroke="#665740" stroke-width="1.5"><ellipse rx="14.448000000000002" ry="12.9"/></g></g><g transform="translate(645 125)"><rect x="-31" y="-21.5" width="62" height="43" rx="4" fill="#aabc91" stroke="#fff5d4" stroke-width="3"/><g fill="#665740" fill-opacity=".38" stroke="#665740" stroke-width="1.5"><rect x="-12.9" y="-12.9" width="25.8" height="25.8"/></g></g><g transform="translate(750 155)"><rect x="-31" y="-21.5" width="62" height="43" rx="4" fill="#dfb764" stroke="#fff5d4" stroke-width="3"/><g fill="#665740" fill-opacity=".38" stroke="#665740" stroke-width="1.5"><path d="M0 -12.9 L15.48 12.9 H-15.48Z"/></g></g><g transform="translate(1010 180)"><rect x="-31" y="-21.5" width="62" height="43" rx="4" fill="#cd9078" stroke="#fff5d4" stroke-width="3"/><g fill="#665740" fill-opacity=".38" stroke="#665740" stroke-width="1.5"><path d="M0 -15.48 L15.48 0 L0 15.48 L-15.48 0Z"/></g></g><g transform="translate(1115 220)"><rect x="-31" y="-21.5" width="62" height="43" rx="4" fill="#90bfd8" stroke="#fff5d4" stroke-width="3"/><g fill="#665740" fill-opacity=".38" stroke="#665740" stroke-width="1.5"><ellipse rx="14.448000000000002" ry="12.9"/></g></g><g transform="translate(1220 245)"><rect x="-31" y="-21.5" width="62" height="43" rx="4" fill="#aabc91" stroke="#fff5d4" stroke-width="3"/><g fill="#665740" fill-opacity=".38" stroke="#665740" stroke-width="1.5"><rect x="-12.9" y="-12.9" width="25.8" height="25.8"/></g></g><g transform="translate(1320 220)"><rect x="-31" y="-21.5" width="62" height="43" rx="4" fill="#dfb764" stroke="#fff5d4" stroke-width="3"/><g fill="#665740" fill-opacity=".38" stroke="#665740" stroke-width="1.5"><path d="M0 -12.9 L15.48 12.9 H-15.48Z"/></g></g><g transform="translate(1425 240)"><rect x="-31" y="-21.5" width="62" height="43" rx="4" fill="#cd9078" stroke="#fff5d4" stroke-width="3"/><g fill="#665740" fill-opacity=".38" stroke="#665740" stroke-width="1.5"><path d="M0 -15.48 L15.48 0 L0 15.48 L-15.48 0Z"/></g></g><g transform="translate(1500 315)"><rect x="-31" y="-21.5" width="62" height="43" rx="4" fill="#90bfd8" stroke="#fff5d4" stroke-width="3"/><g fill="#665740" fill-opacity=".38" stroke="#665740" stroke-width="1.5"><ellipse rx="14.448000000000002" ry="12.9"/></g></g><g transform="translate(1490 405)"><rect x="-31" y="-21.5" width="62" height="43" rx="4" fill="#aabc91" stroke="#fff5d4" stroke-width="3"/><g fill="#665740" fill-opacity=".38" stroke="#665740" stroke-width="1.5"><rect x="-12.9" y="-12.9" width="25.8" height="25.8"/></g></g><ellipse cx="1550" cy="485" rx="61" ry="32" fill="#e1cda4" stroke="#77654a" stroke-width="3"/><text x="1550" y="492" text-anchor="middle" font-family="serif" font-size="22">FINISH</text><path d="M762 134V105A38 42 0 0 1 838 105V134" stroke="#776754" stroke-width="15" fill="#283437"/><path d="M902 149V120A38 42 0 0 1 978 120V149" stroke="#776754" stroke-width="15" fill="#283437"/></svg>